<svg xmlns="http://www.w3.org/2000/svg" viewBox="0 0 398.05 287.89"><defs><style>.cls-1{fill:#ececf1;}.cls-2{fill:#d3d3d8;}.cls-3{fill:#b7c3c8;}.cls-4{fill:#d1dee4;}.cls-5{fill:#014059;}.cls-6{fill:#015e82;}.cls-7{fill:#012231;}.cls-8{fill:#d5011d;}.cls-9{fill:#ff0021;}.cls-10{fill:#eff6f9;}.cls-11{fill:#fff;}</style></defs><title>imagotipo</title><g id="Capa_2" data-name="Capa 2"><g id="logotipo"><path class="cls-1" d="M252.18,286.3c3.41,0,6.82.19,10.23.14a62.73,62.73,0,0,1,7.64.05V86.7C246.36,35.25,198.51,0,143.47,0H15.82C7.09,0,0,8,0,17.77A95.6,95.6,0,0,0,15.87,71.06l51.91,15.1L33.24,106.6a93.84,93.84,0,0,0,14.28,35.53l60.61,17.76L96.55,177.66c7.36,40.49,39.3,71.06,77.51,71.06h32.7c21.3,0,39.37,15.84,45.36,37.58Z"/><path class="cls-2" d="M126.59,88.83c0,9.81-7.09,17.77-15.83,17.77H33.24a99.71,99.71,0,0,1-1.59-17.77v0A85.1,85.1,0,0,1,15.87,71.06h94.89C119.5,71.06,126.59,79,126.59,88.83Z"/><path class="cls-2" d="M158.23,159.89c0,9.81-7.08,17.77-15.82,17.77H96.55c-.09-.51-.17-1-.26-1.52-19.82-4.13-37.08-16.59-48.77-34h94.89C151.15,142.13,158.23,150.09,158.23,159.89Z"/><path class="cls-3" d="M270.05,31.89l-50,128,50,128a128,128,0,1,0,0-256Z"/><path class="cls-4" d="M142.05,159.89a128,128,0,0,0,128,128v-256A128,128,0,0,0,142.05,159.89Z"/><path class="cls-5" d="M270.05,159.89l-20,56.5,20,56.5a113,113,0,0,0,111.66-95.54A363.64,363.64,0,0,0,270.05,159.89Z"/><path class="cls-6" d="M270.05,272.89v-113A363.62,363.62,0,0,0,158.4,177.35,113,113,0,0,0,270.05,272.89Z"/><path class="cls-7" d="M383.05,159.89a113,113,0,0,0-113-113l-20,56.5,20,56.5a363.64,363.64,0,0,1,111.66,17.46A114.17,114.17,0,0,0,383.05,159.89Z"/><path class="cls-5" d="M157.05,159.89a112.92,112.92,0,0,0,1.35,17.46,363.62,363.62,0,0,1,111.65-17.46v-113A113,113,0,0,0,157.05,159.89Z"/><path class="cls-4" d="M153.64,186.84l-4.9-14.18a370.77,370.77,0,0,1,121.31-20.27v15A355.85,355.85,0,0,0,153.64,186.84Z"/><path class="cls-3" d="M386.47,186.84a355.91,355.91,0,0,0-116.42-19.45v-15a370.68,370.68,0,0,1,121.31,20.27Z"/><path class="cls-3" d="M270.05,92.39l-26.36,67.5,26.36,67.5a67.5,67.5,0,1,0,0-135Z"/><path class="cls-4" d="M202.55,159.89a67.5,67.5,0,0,0,67.5,67.5v-135A67.5,67.5,0,0,0,202.55,159.89Z"/><path class="cls-8" d="M245.05,134.89l25,77.5a52.56,52.56,0,0,0,52.5-52.5Z"/><path class="cls-9" d="M217.55,159.89a52.56,52.56,0,0,0,52.5,52.5v-77.5Z"/><path class="cls-10" d="M270.05,107.39l-15,30,15,22.5h52.5A52.56,52.56,0,0,0,270.05,107.39Z"/><path class="cls-11" d="M217.55,159.89h52.5v-52.5A52.56,52.56,0,0,0,217.55,159.89Z"/><path class="cls-4" d="M270.05,137.39l-5,22.5,5,22.5a22.5,22.5,0,0,0,0-45Z"/><path class="cls-10" d="M247.55,159.89a22.53,22.53,0,0,0,22.5,22.5v-45A22.53,22.53,0,0,0,247.55,159.89Z"/></g></g></svg>