<svg xmlns="http://www.w3.org/2000/svg" viewBox="0 0 1705.71 287.89"><defs><style>.cls-1{fill:#ececf1;}.cls-2{fill:#d3d3d8;}.cls-3{fill:#b7c3c8;}.cls-4{fill:#d1dee4;}.cls-5{fill:#014059;}.cls-6{fill:#015e82;}.cls-7{fill:#012231;}.cls-8{fill:#d5011d;}.cls-9{fill:#ff0021;}.cls-10{fill:#eff6f9;}.cls-11{fill:#fff;}</style></defs><title>logotipo_v3</title><g id="Capa_2" data-name="Capa 2"><g id="logotipo"><path class="cls-1" d="M509.27,206.89l3.24-2.34q6.12-3.6,8.64-3.6,5.58,0,12.06,10.08,4,6.3,4,10.08a8.72,8.72,0,0,1-2.43,6.3,28.38,28.38,0,0,1-5.67,4.5l-6.21,3.78q-3,1.8-12.15,4.68A59.13,59.13,0,0,1,493,243.25,69,69,0,0,1,475.7,241a73.15,73.15,0,0,1-18-7.56,74.39,74.39,0,0,1-16.65-13,59.68,59.68,0,0,1-12.15-19.62,69.63,69.63,0,0,1-4.77-26,66.64,66.64,0,0,1,4.68-25.47,58.31,58.31,0,0,1,12-18.9A68.46,68.46,0,0,1,457.43,118q17.64-9.72,35.46-9.72a68.65,68.65,0,0,1,30.42,7.92l4.32,2.52q3.24,2,5,3.24,4.68,3.78,4.68,8.55t-3.78,10q-7,9.72-12.6,9.72-3.24,0-9.18-4-7.56-6.12-20.16-6.12-11.7,0-23,8.1a30.28,30.28,0,0,0-9,11.16,38.66,38.66,0,0,0,0,32.58,31.11,31.11,0,0,0,9.18,11.34q11,7.92,22.86,7.92a37.52,37.52,0,0,0,10.53-1.44A27.43,27.43,0,0,0,509.27,206.89Z"/><path class="cls-1" d="M561.47,158.47q15.12-14,34.56-14t34.38,13.95q14.94,14,14.94,35.55a46.83,46.83,0,0,1-7.74,26.55q-7.75,11.61-18.81,17.1a51.05,51.05,0,0,1-22.95,5.49,49,49,0,0,1-23-5.85A51,51,0,0,1,554,219.94a45.31,45.31,0,0,1-7.65-25.83Q546.35,172.51,561.47,158.47ZM584,207q5.76,4.41,11.7,4.41t11.88-4.5q5.94-4.5,5.94-13.32t-5.58-13.14a19.31,19.31,0,0,0-12.06-4.32,18.82,18.82,0,0,0-12.06,4.5q-5.58,4.5-5.58,13.23T584,207Z"/><path class="cls-1" d="M688.3,159.17q8.48-12.79,20.37-12.8,18.39,0,27.41,15.69a60.2,60.2,0,0,1,4.77-5.68,39.21,39.21,0,0,1,8.93-6.49,25,25,0,0,1,12.62-3.52,30.88,30.88,0,0,1,24.16,11.09q9.74,11.08,9.73,36.69v31.33a53.89,53.89,0,0,1-.27,6.31,14.69,14.69,0,0,1-1.74,4.85q-2.37,4.94-14.08,4.94-11.52,0-14.08-5.12a17,17,0,0,1-1.55-4.85,51.3,51.3,0,0,1-.28-6.31V193.94q0-15.69-11.18-15.69-6.32,0-8.56,4.15t-2.26,11.72v31.41a52.89,52.89,0,0,1-.27,6.36,14.59,14.59,0,0,1-1.73,4.73q-2.55,4.9-14.18,4.91-11.45,0-14-5.09a16.69,16.69,0,0,1-1.54-4.82,50.66,50.66,0,0,1-.28-6.27V193.59q0-15-10.67-15-10.32,0-10.33,15v32.12A53.22,53.22,0,0,1,689,232a14.51,14.51,0,0,1-1.73,4.82q-2.73,4.72-14.18,4.73t-14-4.91a17.21,17.21,0,0,1-1.55-4.73,52.89,52.89,0,0,1-.27-6.36V162.24a52.37,52.37,0,0,1,.27-6.22,12.69,12.69,0,0,1,1.72-4.6q2.7-4.87,12.8-4.87t13.16,3.25Q688.3,153,688.3,159.17Z"/><path class="cls-1" d="M852.56,241.17a38.4,38.4,0,0,1-30.26-13.82q-12-13.82-12-33.68V162.08a49.64,49.64,0,0,1,.27-6.16,16.28,16.28,0,0,1,1.49-4.58q2.48-4.76,13.74-4.76,12.33,0,14.45,6.69,1.05,2.82,1,9V193.8q0,7.5,4.3,11.71t11.52,4.2q7.21,0,11.7-4.39t4.48-11.52V162.19a51.52,51.52,0,0,1,.28-6.31A14.67,14.67,0,0,1,875.3,151q2.38-4.75,14.08-4.76,11.52,0,14.08,4.94a16.74,16.74,0,0,1,1.56,4.85,53.81,53.81,0,0,1,.27,6.3V226a50.61,50.61,0,0,1-.27,6.05,12.84,12.84,0,0,1-1.71,4.6q-2.71,4.71-13.91,4.7-11,0-13.55-4.34a14.36,14.36,0,0,1-1.8-7.4,18.79,18.79,0,0,1-3.25,3.61,45.56,45.56,0,0,1-4.88,4A24.21,24.21,0,0,1,852.56,241.17Z"/><path class="cls-1" d="M972.21,146.51q18.06,0,30.07,13.82t12,33.68v31.52a53.22,53.22,0,0,1-.27,6.27,14.78,14.78,0,0,1-1.55,4.64q-2.54,4.91-14.18,4.91-12.91,0-14.91-6.73a29.82,29.82,0,0,1-1.09-9.27V193.87q0-7.49-4.3-11.7T966.48,178a16,16,0,0,0-11.71,4.39,15.4,15.4,0,0,0-4.48,11.52v31.86a53.18,53.18,0,0,1-.26,6.11,12.56,12.56,0,0,1-1.69,4.52q-2.3,4.78-13.64,4.78-11.16,0-13.64-4.78a16.73,16.73,0,0,1-1.5-4.69,50.79,50.79,0,0,1-.27-6.12V161.68a50.49,50.49,0,0,1,.27-6.05,12.8,12.8,0,0,1,1.72-4.61q2.52-4.5,13.91-4.51,11,0,13.54,4.15a14.43,14.43,0,0,1,1.81,7.41,18.11,18.11,0,0,1,3.25-3.61,31.4,31.4,0,0,1,4.88-3.8A23.62,23.62,0,0,1,972.21,146.51Z"/><path class="cls-1" d="M1058,129a7.63,7.63,0,0,1-4.77,3.69,38.79,38.79,0,0,1-18.18,0,7.55,7.55,0,0,1-4.77-3.78,15.44,15.44,0,0,1-1.62-4.77,52.29,52.29,0,0,1-.27-6.21,52.29,52.29,0,0,1,.27-6.21,14.7,14.7,0,0,1,1.53-4.59q2.52-4.86,14-4.86,11.34,0,13.68,4.86a14.42,14.42,0,0,1,1.71,4.77,52.29,52.29,0,0,1,.27,6.21,52.29,52.29,0,0,1-.27,6.21A14.53,14.53,0,0,1,1058,129Zm-29.7,32.89a51.3,51.3,0,0,1,.28-6.31,17,17,0,0,1,1.55-4.85q2.57-4.76,14.26-4.75,8.79,0,12.44,3.11,3.11,2.55,3.29,7.86c.12,1.22.18,3,.18,5.3v64a53.89,53.89,0,0,1-.27,6.31,14.76,14.76,0,0,1-1.74,4.85q-2.37,4.76-14.08,4.75-11.52,0-14.08-4.94a17.08,17.08,0,0,1-1.55-4.75,51.11,51.11,0,0,1-.28-6.4Z"/><path class="cls-1" d="M1137.21,106.05a7.79,7.79,0,0,1,4.85-3.75,39.67,39.67,0,0,1,18.47,0,7.65,7.65,0,0,1,4.84,3.84A15.53,15.53,0,0,1,1167,111a53.89,53.89,0,0,1,.27,6.31V226.46a53.89,53.89,0,0,1-.27,6.31,13,13,0,0,1-1.74,4.66q-2.74,4.95-15.45,4.94t-14.17-9q-7.68,8.78-21.4,8.78-16.46,0-30-14.36t-13.53-33.46q0-19.11,13.63-33.55t29.89-14.45q13.53,0,21,9.14v-38.4a51.22,51.22,0,0,1,.28-6.3A14.83,14.83,0,0,1,1137.21,106.05Zm-28.55,98.86a15.16,15.16,0,0,0,11.34,4.86,14.32,14.32,0,0,0,11.07-4.86,15.6,15.6,0,0,0,4.41-10.71,16.62,16.62,0,0,0-4.23-10.89,14.15,14.15,0,0,0-11.43-5,14.53,14.53,0,0,0-11.52,4.95,16.2,16.2,0,0,0-4.32,10.89A15.24,15.24,0,0,0,1108.66,204.91Z"/><path class="cls-1" d="M1244,156.67q1.08-10.08,14.22-10.08a37.27,37.27,0,0,1,10.44,1.08,7.55,7.55,0,0,1,4.77,3.78,15.44,15.44,0,0,1,1.62,4.77,52.29,52.29,0,0,1,.27,6.21v63a52.29,52.29,0,0,1-.27,6.21,16.68,16.68,0,0,1-1.53,4.77q-2.52,4.68-12.33,4.68T1248,238.66a9.72,9.72,0,0,1-3.87-7.11q-6.66,9.54-22.23,9.54T1193,226.87q-13.32-14.22-13.32-33t13.41-32.94q13.41-14.13,29.43-14.13a28,28,0,0,1,11.16,2.16,20,20,0,0,1,10.26,7.74Zm-33.25,37.44a14.9,14.9,0,0,0,4.68,10.71,15.3,15.3,0,0,0,11.34,4.77,14.35,14.35,0,0,0,11.07-4.86,15.6,15.6,0,0,0,4.41-10.71,16.67,16.67,0,0,0-4.23-10.89,14,14,0,0,0-11.34-5,14.56,14.56,0,0,0-11.52,5A16.3,16.3,0,0,0,1210.72,194.11Z"/><path class="cls-1" d="M1352.21,106.05a7.79,7.79,0,0,1,4.85-3.75,39.67,39.67,0,0,1,18.47,0,7.65,7.65,0,0,1,4.84,3.84A15.53,15.53,0,0,1,1382,111a53.89,53.89,0,0,1,.27,6.31V226.46a53.89,53.89,0,0,1-.27,6.31,13,13,0,0,1-1.74,4.66q-2.74,4.95-15.45,4.94t-14.17-9q-7.68,8.78-21.4,8.78-16.46,0-30-14.36t-13.53-33.46q0-19.11,13.63-33.55t29.89-14.45q13.53,0,21,9.14v-38.4a51.22,51.22,0,0,1,.28-6.3A14.83,14.83,0,0,1,1352.21,106.05Zm-28.64,98.86a15.16,15.16,0,0,0,11.34,4.86,14.32,14.32,0,0,0,11.07-4.86,15.61,15.61,0,0,0,4.42-10.71,16.63,16.63,0,0,0-4.24-10.89,14.15,14.15,0,0,0-11.43-5,14.53,14.53,0,0,0-11.52,4.95,16.19,16.19,0,0,0-4.31,10.89A15.23,15.23,0,0,0,1323.57,204.91Z"/><path class="cls-1" d="M1530,109.41a52.4,52.4,0,0,1,6.24.28,13.75,13.75,0,0,1,4.7,1.71,8.07,8.07,0,0,1,3.7,4.88,31.45,31.45,0,0,1,1.09,9.23,31.37,31.37,0,0,1-1.09,9.22,7.6,7.6,0,0,1-3.79,4.79,15.58,15.58,0,0,1-4.8,1.62,54.68,54.68,0,0,1-6.41.27h-55.33v18h35.42a54.21,54.21,0,0,1,6.38.27,14.3,14.3,0,0,1,4.76,1.71q4.68,2.7,4.68,14.2,0,12.6-6.83,14.93a33.7,33.7,0,0,1-9.17.89h-35.24V226a52.23,52.23,0,0,1-.27,6.32,14.33,14.33,0,0,1-1.72,4.7q-2.52,4.89-14.1,4.89-12.66,0-14.82-6.87-1.1-2.9-1.09-9.23V125.32q0-9.21,3.44-12.56t13-3.35Z"/><path class="cls-1" d="M1556.29,116.93a51.3,51.3,0,0,1,.28-6.31,17,17,0,0,1,1.55-4.85q2.57-4.93,14.26-4.93,11.16,0,13.9,4.93a14.7,14.7,0,0,1,1.74,4.94,56.52,56.52,0,0,1,.27,6.4v84.66c0,4.39.37,7.17,1.1,8.32s2.35,1.74,4.85,1.74a29.66,29.66,0,0,1,5,.27,9.42,9.42,0,0,1,3.11,1.56q3.66,2.37,3.66,13,0,11.52-3.66,14.08-4.75,3.3-22.67,1.1-14.09-1.83-18.29-9.33-5.12-9-5.12-28.52Z"/><path class="cls-1" d="M1695.09,147.67q10.62,4.68,10.62,11.34a13.5,13.5,0,0,1-1.44,6.12,29.72,29.72,0,0,0-1.44,3.06l-47.16,105.48q-1.44,3.42-2.43,5.22a11.07,11.07,0,0,1-3.15,3.42,8.75,8.75,0,0,1-5.4,1.62q-3.24,0-9.54-2.7-10.62-4.68-10.62-11.16,0-4.32,17.28-41.22L1606,168.55q-3.6-5.94-3.6-8.82,0-5.76,9.72-11.52,6.12-3.6,9.54-3.6a9.88,9.88,0,0,1,5.58,1.44,10.82,10.82,0,0,1,3.15,3q1,1.53,9.9,16.74t17,28.35q.9-2.88,9.72-22.23t9.45-20.61a18.3,18.3,0,0,1,2.07-3.06,7.79,7.79,0,0,1,6.57-3.06A25.65,25.65,0,0,1,1695.09,147.67Z"/><path class="cls-1" d="M252.18,286.3c3.41,0,6.82.19,10.23.14a62.73,62.73,0,0,1,7.64.05V86.7C246.36,35.25,198.51,0,143.47,0H15.82C7.09,0,0,8,0,17.77A95.6,95.6,0,0,0,15.87,71.06l51.91,15.1L33.24,106.6a93.84,93.84,0,0,0,14.28,35.53l60.61,17.76L96.55,177.66c7.36,40.49,39.3,71.06,77.51,71.06h32.7c21.3,0,39.37,15.84,45.36,37.58Z"/><path class="cls-2" d="M126.59,88.83c0,9.81-7.09,17.77-15.83,17.77H33.24a99.71,99.71,0,0,1-1.59-17.77v0A85.1,85.1,0,0,1,15.87,71.06h94.89C119.5,71.06,126.59,79,126.59,88.83Z"/><path class="cls-2" d="M158.23,159.89c0,9.81-7.08,17.77-15.82,17.77H96.55c-.09-.51-.17-1-.26-1.52-19.82-4.13-37.08-16.59-48.77-34h94.89C151.15,142.13,158.23,150.09,158.23,159.89Z"/><path class="cls-3" d="M270.05,31.89l-50,128,50,128a128,128,0,1,0,0-256Z"/><path class="cls-4" d="M142.05,159.89a128,128,0,0,0,128,128v-256A128,128,0,0,0,142.05,159.89Z"/><path class="cls-5" d="M270.05,159.89l-20,56.5,20,56.5a113,113,0,0,0,111.66-95.54A363.64,363.64,0,0,0,270.05,159.89Z"/><path class="cls-6" d="M270.05,272.89v-113A363.62,363.62,0,0,0,158.4,177.35,113,113,0,0,0,270.05,272.89Z"/><path class="cls-7" d="M383.05,159.89a113,113,0,0,0-113-113l-20,56.5,20,56.5a363.64,363.64,0,0,1,111.66,17.46A114.17,114.17,0,0,0,383.05,159.89Z"/><path class="cls-5" d="M157.05,159.89a112.92,112.92,0,0,0,1.35,17.46,363.62,363.62,0,0,1,111.65-17.46v-113A113,113,0,0,0,157.05,159.89Z"/><path class="cls-4" d="M153.64,186.84l-4.9-14.18a370.77,370.77,0,0,1,121.31-20.27v15A355.85,355.85,0,0,0,153.64,186.84Z"/><path class="cls-3" d="M386.47,186.84a355.91,355.91,0,0,0-116.42-19.45v-15a370.68,370.68,0,0,1,121.31,20.27Z"/><path class="cls-3" d="M270.05,92.39l-26.36,67.5,26.36,67.5a67.5,67.5,0,1,0,0-135Z"/><path class="cls-4" d="M202.55,159.89a67.5,67.5,0,0,0,67.5,67.5v-135A67.5,67.5,0,0,0,202.55,159.89Z"/><path class="cls-8" d="M245.05,134.89l25,77.5a52.56,52.56,0,0,0,52.5-52.5Z"/><path class="cls-9" d="M217.55,159.89a52.56,52.56,0,0,0,52.5,52.5v-77.5Z"/><path class="cls-10" d="M270.05,107.39l-15,30,15,22.5h52.5A52.56,52.56,0,0,0,270.05,107.39Z"/><path class="cls-11" d="M217.55,159.89h52.5v-52.5A52.56,52.56,0,0,0,217.55,159.89Z"/><path class="cls-4" d="M270.05,137.39l-5,22.5,5,22.5a22.5,22.5,0,0,0,0-45Z"/><path class="cls-10" d="M247.55,159.89a22.53,22.53,0,0,0,22.5,22.5v-45A22.53,22.53,0,0,0,247.55,159.89Z"/></g></g></svg>